<svg width="2135" height="2136" xmlns="http://www.w3.org/2000/svg" xmlns:xlink="http://www.w3.org/1999/xlink" xml:space="preserve" overflow="hidden"><g transform="translate(-1132 -169)"><g><path d="M2119.58 231.38C2125.7 243.6 2120.81 281.482 2119.58 301.034 2118.36 320.586 2089.02 340.137 2112.25 348.691 2135.48 357.245 2220.43 351.746 2258.94 352.357 2297.45 352.968 2311.5 345.636 2343.29 352.357 2375.07 359.078 2421.52 374.353 2449.64 392.683 2477.75 411.013 2498.53 434.231 2511.98 462.336 2525.43 490.442 2530.32 561.317 2530.32 561.317L2530.32 561.317C2531.54 573.537 2522.37 615.696 2537.65 634.637 2552.93 653.577 2596.94 650.523 2622 674.962 2647.06 699.402 2673.34 752.558 2688.01 781.275 2702.68 809.992 2703.29 831.377 2710.01 847.263 2716.74 863.149 2715.51 863.76 2728.35 876.59 2741.18 889.421 2768.69 897.975 2787.03 924.248 2805.36 950.521 2829.81 1000.01 2838.37 1034.23 2846.92 1068.44 2843.26 1098.38 2838.37 1129.54 2833.48 1160.7 2825.53 1193.09 2809.03 1221.19 2792.53 1249.3 2760.13 1278.62 2739.35 1298.18 2718.57 1317.73 2716.12 1330.56 2684.34 1338.5 2652.56 1346.44 2548.65 1345.83 2548.65 1345.83L1771.19 1349.5C1628.78 1348.28 1715.57 1350.11 1694.18 1338.5 1672.79 1326.89 1658.73 1303.68 1642.84 1279.85 1626.95 1256.02 1612.89 1223.02 1598.83 1195.53 1584.78 1168.03 1565.22 1145.43 1558.49 1114.88 1551.77 1084.33 1549.33 1041.56 1558.49 1012.23 1567.66 982.904 1594.56 962.741 1613.5 938.912 1632.45 915.083 1657.51 889.421 1672.18 869.259 1686.85 849.096 1691.13 845.43 1701.52 817.935 1711.91 790.44 1715.57 731.785 1734.52 704.29 1753.47 676.795 1796.87 663.964 1815.2 652.966 1833.54 641.969 1837.82 646.857 1844.54 638.303 1851.26 629.749 1852.49 624.861 1855.54 601.643 1858.6 578.425 1852.49 531.379 1862.88 498.996 1873.27 466.613 1898.33 437.285 1917.89 407.347 1937.44 377.408 1961.28 349.302 1980.23 319.364 1999.18 289.425 2014.46 242.989 2031.57 227.714 2048.68 212.44 2067.63 225.882 2082.91 227.714 2098.19 229.547 2113.47 219.16 2119.58 231.38Z" stroke="#042433" stroke-width="6.875" stroke-linecap="butt" stroke-linejoin="miter" stroke-miterlimit="8" stroke-opacity="1" fill="#8ED973" fill-rule="evenodd" fill-opacity="1"/><path d="M1709.49 1331.87C1730.27 1300.11 1793.83 1350.8 1845.16 1357.52 1896.5 1364.24 1936.83 1375.23 2017.5 1372.18 2098.17 1369.13 2243.62 1341.64 2329.18 1339.2 2414.74 1336.76 2472.18 1354.47 2530.85 1357.52 2589.52 1360.58 2649.41 1356.3 2681.19 1357.52 2712.97 1358.74 2714.8 1347.75 2721.52 1364.85 2728.25 1381.95 2725.19 1438.14 2721.52 1460.13 2717.86 1482.12 2705.02 1485.78 2699.52 1496.78 2694.02 1507.77 2698.91 1516.93 2688.52 1526.09 2678.13 1535.25 2649.41 1543.19 2637.19 1551.74 2624.96 1560.29 2621.91 1556.63 2615.19 1577.4 2608.46 1598.16 2642.08 1566.4 2596.85 1676.34 2551.63 1786.27 2408.63 2137.46 2343.85 2237.01 2279.07 2336.57 2236.29 2268.16 2208.18 2273.66 2180.06 2279.16 2198.4 2276.1 2175.17 2269.99 2151.95 2263.89 2092.67 2249.84 2068.84 2237.01 2045 2224.19 2078 2300.53 2032.17 2193.04 1986.34 2085.54 1836.61 1699.55 1793.83 1592.05 1751.05 1484.56 1787.72 1555.41 1775.5 1548.08 1763.27 1540.75 1732.11 1585.33 1720.49 1548.08 1708.88 1510.82 1688.72 1363.63 1709.49 1331.87Z" stroke="#042433" stroke-width="6.875" stroke-linecap="butt" stroke-linejoin="miter" stroke-miterlimit="8" stroke-opacity="1" fill="#FEC79D" fill-rule="evenodd" fill-opacity="1"/><g><g><g><path d="M1607.25 641.721C1598.62 592.107 1578.13 544.722 1547.02 503.999 1521.36 470.193 1489.02 442.537 1452.76 422.306 1451.77 342.09 1421.41 266.317 1367.1 208.561 1310.09 148.093 1234.31 115.024 1153.35 115.024L1049.2 115.024C1048.96 93.799 1042.78 72.5781 1030.94 54.0654 1009.23 20.2475 972.94 0 933.21 0 910.263 0 887.79 6.9225 868.549 20.0062 760.693 93.3123 669.365 291.748 672.564 424.777 595.081 469.694 539.293 548.67 523.011 641.721 431.437 697.009 374.169 798.7 374.169 910.995 374.169 992.946 404.783 1070.43 460.072 1129.17 476.841 1147.2 495.366 1162.51 515.11 1175.33L531.393 1329.59C536.09 1373.52 564.467 1409.56 603.223 1425.6L614.813 1454.23 637.286 1510.51 651.339 1544.55 667.135 1583.56 733.539 1747.44 748.845 1785.95 793.762 1897.5 822.883 1968.84 827.825 1981.66 844.349 2022.64C871.016 2088.04 933.452 2130 1003.8 2130L1126.22 2130C1196.55 2130 1259 2088.04 1285.41 2022.65L1302.2 1982.17 1309.36 1964.15 1309.36 1963.66 1336.01 1897.51 1381.17 1786.45 1396.97 1747.2 1463.12 1583.31 1478.92 1544.33 1492.49 1510.76 1515.19 1454.24 1526.79 1425.61C1565.54 1409.56 1593.93 1373.52 1598.62 1329.6L1615.17 1175.58C1699.57 1120.29 1755.83 1022.32 1755.83 910.999 1755.83 845.847 1736.59 783.399 1700.06 730.078 1675.37 694.047 1643.54 663.936 1607.25 641.721ZM1511.23 1217.67 1500.39 1318.98C1499.4 1328.6 1491.5 1335.75 1481.88 1335.75L1456.71 1335.75 1456.95 1335.26 1456.71 1335.26 1445.35 1335.26 1445.84 1335.75 684.183 1335.75 684.674 1335.26 673.317 1335.26 673.317 1335.75 648.144 1335.75C638.526 1335.75 630.63 1328.6 629.635 1318.98L621.12 1239.59 618.96 1217.82C636.916 1221.23 655.116 1222.97 673.562 1222.97L1456.45 1222.97C1473.34 1222.97 1489.75 1221.33 1505.82 1218.35 1507.6 1218.1 1509.44 1217.97 1511.23 1217.67ZM1210.62 1944.65 1204.22 1960.57 1201.81 1965.94 1092.15 1856.29 1207.42 1741.03 1268.13 1801.74 1244.44 1860.49 1210.62 1944.41 1210.62 1944.65ZM927.927 1965.87 919.378 1944.64 919.378 1944.4 885.335 1860.48 861.627 1802 922.598 1741.03 1037.86 1856.29 958.396 1935.76 927.927 1965.87ZM845.976 1763 840.401 1749.17 824.867 1710.43 779.692 1599.11 780.196 1598.62 895.444 1713.89 859.759 1749.57 845.976 1763ZM815.603 1434.49 889.545 1434.96 780.191 1544.33 742.18 1506.31 728.839 1473.48 713.042 1434.5 815.603 1434.5ZM949.751 1713.87 1065.02 1598.62 1180.27 1713.89 1065.02 1829.14 951.199 1715.33 949.751 1713.87ZM922.598 1686.74 807.332 1571.47 922.598 1456.2 1037.86 1571.47 922.598 1686.74ZM1092.15 1571.47 1207.42 1456.2 1322.68 1571.47 1207.42 1686.73 1092.15 1571.47ZM1174.37 1434.96 1066.4 1542.94 1065 1544.31 955.18 1434.49 1082.26 1434.49 1174.37 1434.96ZM1065.02 1883.44 1180.27 1998.69 1160.77 2018.45 969.237 2018.45 949.734 1998.69 1065.02 1883.44ZM607.657 1112.16C588.417 1105 570.64 1094.87 554.599 1082.03 546.441 1075.87 539.048 1068.96 531.88 1061.56 518.555 1047.24 506.948 1030.94 497.833 1013.18 482.021 982.82 472.889 948.012 472.889 910.995 472.889 822.151 524.974 745.383 598.28 713.546L1531.73 713.546C1566.77 728.839 1596.63 754.028 1618.6 785.862 1642.79 821.156 1657.1 864.351 1657.1 910.991 1657.1 947.521 1648.22 982.071 1632.68 1012.18 1632.68 1012.44 1632.42 1012.44 1632.42 1012.44 1618.61 1040.33 1598.86 1064.02 1575.17 1082.77 1559.13 1095.11 1541.6 1105.23 1522.6 1112.15 1501.86 1120.03 1479.65 1124.24 1456.44 1124.24L673.554 1124.24C650.611 1124.25 628.396 1119.8 607.657 1112.16ZM924.075 101.699C925.264 100.821 926.479 100.318 927.698 99.8604 928.318 99.6191 928.934 99.4028 929.587 99.2405 930.806 98.9659 932.041 98.7371 933.21 98.7371 944.813 98.7371 954.935 112.308 948.499 125.387 944.064 135.267 940.116 144.886 936.672 154.267 926.3 183.388 946.781 213.745 975.902 213.745L1153.36 213.745C1208.66 213.745 1258.76 237.682 1295.03 276.193 1331.56 314.936 1354.02 368.253 1354.02 426.74 1354.02 434.899 1353.53 442.794 1352.78 450.433L775.008 450.433C752.048 372.692 828.067 166.864 924.075 101.699ZM773.269 489.925 775.495 488.951 1165.04 488.951 1355.25 489.276 1356.73 489.925C1401.4 500.55 1440.66 527.445 1468.55 563.98 1491.05 593.525 1506.1 629.648 1511.17 668.941 1511.41 671.004 1511.95 672.972 1512.13 675.035L701.881 675.035 618.041 674.973C627.193 583.932 690.602 509.669 773.269 489.925ZM1283.77 1763.08 1234.57 1713.89 1349.82 1598.62 1350.31 1599.11 1305.15 1710.43 1289.6 1749.17 1285.37 1759.65 1283.77 1763.08ZM1349.82 1544.31 1240.01 1434.49 1368.21 1434.49 1416.62 1434.73 1400.92 1473.47 1387.35 1506.8 1350 1544.15 1349.82 1544.31Z" fill="#364148" fill-rule="nonzero" fill-opacity="1" transform="matrix(1 0 0 1.00047 1135 172)"/></g></g></g><text fill="#F2F2F2" fill-opacity="1" font-family="Aptos,Aptos_MSFontService,sans-serif" font-style="normal" font-variant="normal" font-weight="400" font-stretch="normal" font-size="202" text-anchor="start" direction="ltr" writing-mode="lr-tb" unicode-bidi="normal" text-decoration="none" transform="matrix(1 0 0 1 1700.69 1162)">SoftMatch</text><text fill="#F2F2F2" fill-opacity="1" font-family="Aptos,Aptos_MSFontService,sans-serif" font-style="normal" font-variant="normal" font-weight="400" font-stretch="normal" font-size="202" text-anchor="start" direction="ltr" writing-mode="lr-tb" unicode-bidi="normal" text-decoration="none" transform="matrix(1 0 0 1 2599.18 1162)">a</text></g></g></svg>