<?xml version="1.0" encoding="UTF-8" standalone="no"?>
<!-- Created with Inkscape (http://www.inkscape.org/) -->

<svg
   version="1.1"
   id="svg1"
   width="227.092"
   height="227.092"
   viewBox="0 0 227.092 227.092"
   xmlns="http://www.w3.org/2000/svg"
   xmlns:svg="http://www.w3.org/2000/svg">
  <defs
     id="defs1" />
  <g
     id="g1">
    <path
       id="path1"
       d="M 170.199,157.105 V 13.2134 C 170.199,5.98694 164.332,0.12 157.105,0.12 H 13.2134 C 5.98694,0.12 0.12,5.98694 0.12,13.2134 V 157.105 c 0,7.227 5.86694,13.094 13.0934,13.094 H 157.105 c 7.227,0 13.094,-5.867 13.094,-13.094 z"
       style="fill:#b6c072;fill-opacity:1;fill-rule:evenodd;stroke:#b6c072;stroke-width:0.24;stroke-linecap:butt;stroke-linejoin:miter;stroke-miterlimit:10;stroke-dasharray:none;stroke-opacity:1"
       transform="matrix(1.3333333,0,0,-1.3333333,0,227.092)" />
    <path
       id="path2"
       d="m 108.297,115.564 45.221,-9.044"
       style="fill:none;stroke:#231f20;stroke-width:2.5;stroke-linecap:butt;stroke-linejoin:miter;stroke-miterlimit:10;stroke-dasharray:none;stroke-opacity:1"
       transform="matrix(1.3333333,0,0,-1.3333333,0,227.092)" />
    <path
       style="font-size:36px;font-family:'Fira Sans';fill:#231f20"
       d="m 9.72,-25.236 c -4.572,0 -7.812,2.664 -7.812,6.48 0,3.852 2.52,5.688 7.344,7.164 4.212,1.296 5.364,2.376 5.364,4.788 0,2.988 -2.412,4.428 -5.328,4.428 -2.7,0 -4.644,-0.972 -6.48,-2.52 L 0.9,-2.772 c 2.052,2.016 4.86,3.204 8.424,3.204 5.58,0 8.856,-3.024 8.856,-7.344 0,-4.752 -3.384,-6.3 -7.344,-7.524 C 6.372,-15.804 5.4,-16.812 5.4,-18.9 c 0,-2.376 1.98,-3.528 4.464,-3.528 2.052,0 3.78,0.648 5.652,2.16 l 1.872,-2.088 c -2.088,-1.872 -4.248,-2.88 -7.668,-2.88 z m 23.31,5.832 c -5.4,0 -8.496,4.068 -8.496,9.936 0,6.012 3.06,9.9 8.46,9.9 5.364,0 8.46,-4.068 8.46,-9.936 0,-6.012 -3.024,-9.9 -8.424,-9.9 z m 0,2.664 c 3.132,0 4.86,2.304 4.86,7.236 0,4.968 -1.728,7.272 -4.896,7.272 -3.168,0 -4.896,-2.304 -4.896,-7.236 0,-4.968 1.764,-7.272 4.932,-7.272 z m 23.202,-7.596 c 0.972,0 2.088,0.18 3.312,0.72 l 1.044,-2.412 C 59.076,-26.676 57.852,-27 56.052,-27 c -3.852,0 -5.94,2.268 -5.94,5.436 v 2.592 h -3.384 v 2.556 h 3.384 V 0 h 3.312 v -16.416 h 4.248 l 0.36,-2.556 H 53.424 V -21.6 c 0,-1.836 0.72,-2.736 2.808,-2.736 z m 16.794001,21.204 c -0.936,0.576 -1.692,0.828 -2.52,0.828 -1.656,0 -2.268,-0.9 -2.268,-2.808 v -11.304 h 4.14 l 0.36,-2.556 h -4.5 v -4.68 l -3.312,0.396 v 4.284 h -3.312 v 2.556 h 3.312 v 11.448 c 0,3.528 1.908,5.4 5.112,5.4 1.62,0 2.988,-0.432 4.248,-1.296 z"
       id="text2"
       transform="matrix(1.3333333,0,0,1.3333333,17.2964,147.81387)"
       aria-label="Soft" />
    <path
       style="font-size:36px;font-family:'Fira Sans';fill:#231f20"
       d="M 23.724,-24.804 H 19.08 L 14.112,-6.768 8.892,-24.804 H 4.284 L 2.232,0 h 3.24 L 6.3,-10.944 c 0.288,-3.636 0.468,-7.488 0.468,-10.404 l 5.652,18.54 h 3.204 l 5.364,-18.504 c 0.036,2.052 0.288,6.228 0.612,10.116 L 22.464,0 h 3.312 z m 23.994,20.376 v -8.676 c 0,-3.96 -2.088,-6.3 -6.66,-6.3 -2.124,0 -4.212,0.432 -6.552,1.296 l 0.828,2.412 c 1.944,-0.648 3.708,-1.008 5.112,-1.008 2.628,0 3.96,1.008 3.96,3.744 v 1.404 H 41.49 c -5.292,0 -8.352,2.196 -8.352,6.264 0,3.384 2.268,5.724 6.048,5.724 2.304,0 4.32,-0.864 5.652,-2.844 0.576,1.872 1.8,2.628 3.708,2.844 l 0.756,-2.304 c -0.972,-0.36 -1.584,-0.9 -1.584,-2.556 z m -7.776,2.376 c -2.16,0 -3.276,-1.188 -3.276,-3.42 0,-2.592 1.764,-3.888 5.256,-3.888 h 2.484 v 4.356 c -1.08,1.98 -2.52,2.952 -4.464,2.952 z m 25.758001,-1.08 c -0.936,0.576 -1.692,0.828 -2.52,0.828 -1.656,0 -2.268,-0.9 -2.268,-2.808 v -11.304 h 4.14 l 0.36,-2.556 h -4.5 v -4.68 l -3.312,0.396 v 4.284 h -3.312 v 2.556 h 3.312 v 11.448 c 0,3.528 1.908,5.4 5.112,5.4 1.62,0 2.988,-0.432 4.248,-1.296 z m 14.093997,-16.272 c -5.148,0 -8.28,4.032 -8.28,10.08 0,6.12 3.168,9.756 8.28,9.756 2.196,0 4.104,-0.72 5.796,-2.088 l -1.512,-2.16 c -1.44,0.936 -2.556,1.44 -4.14,1.44 -2.988,0 -4.86,-2.052 -4.86,-7.02 0,-4.932 1.872,-7.272 4.86,-7.272 1.584,0 2.772,0.468 4.068,1.404 l 1.584,-2.088 c -1.764,-1.476 -3.564,-2.052 -5.796,-2.052 z m 22.086002,0 c -2.376002,0 -4.248002,1.188 -5.616002,3.06 v -10.584 l -3.312,0.36 V 0 h 3.312 v -13.5 c 1.26,-1.98 2.736,-3.312 4.788002,-3.312 1.8,0 3.024,0.828 3.024,3.672 V 0 h 3.312 v -13.608 c 0,-3.564 -2.052,-5.796 -5.508,-5.796 z m 27.81,14.976 v -8.676 c 0,-3.96 -2.088,-6.3 -6.66,-6.3 -2.124,0 -4.212,0.432 -6.552,1.296 l 0.828,2.412 c 1.944,-0.648 3.708,-1.008 5.112,-1.008 2.628,0 3.96,1.008 3.96,3.744 v 1.404 h -2.916 c -5.292,0 -8.352,2.196 -8.352,6.264 0,3.384 2.268,5.724 6.048,5.724 2.304,0 4.32,-0.864 5.652,-2.844 0.576,1.872 1.8,2.628 3.708,2.844 l 0.756,-2.304 c -0.972,-0.36 -1.584,-0.9 -1.584,-2.556 z m -7.776,2.376 c -2.16,0 -3.276,-1.188 -3.276,-3.42 0,-2.592 1.764,-3.888 5.256,-3.888 h 2.484 v 4.356 c -1.08,1.98 -2.52,2.952 -4.464,2.952 z"
       id="text3"
       transform="matrix(1.3333333,0,0,1.3333333,17.2964,211.81387)"
       aria-label="Matcha" />
    <path
       id="path3"
       d="M 147.489,105.012 140.99,57.3802 h -25.994 l -6.498,47.6318 z"
       style="fill:#b6c072;fill-opacity:1;fill-rule:evenodd;stroke:#231f20;stroke-width:2.5;stroke-linecap:butt;stroke-linejoin:miter;stroke-miterlimit:10;stroke-dasharray:none;stroke-opacity:1"
       transform="matrix(1.3333333,0,0,-1.3333333,0,227.092)" />
    <path
       id="path4"
       d="m 148.245,115.963 c 3.42,-2.383 5.46,-5.383 5.46,-8.641 0,-7.7436 -11.521,-6.832 -25.712,-6.832 -14.19,0 -25.711,-0.9116 -25.711,6.832 0,3.258 2.04,6.258 5.46,8.641 -0.761,1.438 -1.175,2.983 -1.175,4.59 0,3.638 2.119,6.954 5.593,9.449 -0.843,1.657 -1.457,3.48 -1.308,5.38 0.458,5.826 5.736,5.89 8.298,5.656 0,2.179 -0.994,7.855 1.206,12.21 2.134,4.222 7.424,7.147 9.949,7.838 4.13,1.132 7.226,-1.532 9.798,-5.125 l -4.372,2.261 c -2.825,1.061 -6.321,-2.168 -4.974,-5.577 0.99,-2.507 3.012,-3.522 5.782,-5.101 l 1.604,-0.627 c 5.136,-2.424 6.991,-6.338 6.991,-11.535 0,-1.906 -0.465,-3.723 -1.307,-5.38 3.473,-2.495 5.593,-5.811 5.593,-9.449 0,-1.607 -0.414,-3.152 -1.175,-4.59 z"
       style="fill:#b6c072;fill-opacity:1;fill-rule:evenodd;stroke:#231f20;stroke-width:2.5;stroke-linecap:butt;stroke-linejoin:miter;stroke-miterlimit:10;stroke-dasharray:none;stroke-opacity:1"
       transform="matrix(1.3333333,0,0,-1.3333333,0,227.092)" />
    <path
       id="path5"
       d="m 155.404,105.012 -4.217,-9.9662 h -46.144 l -4.461,9.9662 z"
       style="fill:#b6c072;fill-opacity:1;fill-rule:evenodd;stroke:#231f20;stroke-width:2.5;stroke-linecap:butt;stroke-linejoin:miter;stroke-miterlimit:10;stroke-dasharray:none;stroke-opacity:1"
       transform="matrix(1.3333333,0,0,-1.3333333,0,227.092)" />
    <path
       id="path6"
       d="M 123.761,94.6591 111.954,82.8519"
       style="fill:none;stroke:#231f20;stroke-width:1;stroke-linecap:butt;stroke-linejoin:miter;stroke-miterlimit:10;stroke-dasharray:none;stroke-opacity:1"
       transform="matrix(1.3333333,0,0,-1.3333333,0,227.092)" />
    <path
       id="path7"
       d="M 141.852,63.0122 110.574,94.2907"
       style="fill:none;stroke:#231f20;stroke-width:1;stroke-linecap:butt;stroke-linejoin:miter;stroke-miterlimit:10;stroke-dasharray:none;stroke-opacity:1"
       transform="matrix(1.3333333,0,0,-1.3333333,0,227.092)" />
    <path
       id="path8"
       d="M 143.391,78.6758 127.072,94.9953"
       style="fill:none;stroke:#231f20;stroke-width:1;stroke-linecap:butt;stroke-linejoin:miter;stroke-miterlimit:10;stroke-dasharray:none;stroke-opacity:1"
       transform="matrix(1.3333333,0,0,-1.3333333,0,227.092)" />
    <path
       id="path9"
       d="M 131.248,57.3802 112.707,75.9217"
       style="fill:none;stroke:#231f20;stroke-width:1;stroke-linecap:butt;stroke-linejoin:miter;stroke-miterlimit:10;stroke-dasharray:none;stroke-opacity:1"
       transform="matrix(1.3333333,0,0,-1.3333333,0,227.092)" />
    <path
       id="path10"
       d="M 139.018,94.9953 113.994,69.9717"
       style="fill:none;stroke:#231f20;stroke-width:1;stroke-linecap:butt;stroke-linejoin:miter;stroke-miterlimit:10;stroke-dasharray:none;stroke-opacity:1"
       transform="matrix(1.3333333,0,0,-1.3333333,0,227.092)" />
    <path
       id="path11"
       d="M 144.106,82.8519 118.634,57.3802"
       style="fill:none;stroke:#231f20;stroke-width:1;stroke-linecap:butt;stroke-linejoin:miter;stroke-miterlimit:10;stroke-dasharray:none;stroke-opacity:1"
       transform="matrix(1.3333333,0,0,-1.3333333,0,227.092)" />
    <path
       id="path12"
       d="m 142.362,66.7169 -9.337,-9.3371"
       style="fill:none;stroke:#231f20;stroke-width:1;stroke-linecap:butt;stroke-linejoin:miter;stroke-miterlimit:10;stroke-dasharray:none;stroke-opacity:1"
       transform="matrix(1.3333333,0,0,-1.3333333,0,227.092)" />
    <path
       id="path13"
       d="m 108.297,116.15 26.53,-10.963"
       style="fill:none;stroke:#231f20;stroke-width:1;stroke-linecap:butt;stroke-linejoin:miter;stroke-miterlimit:10;stroke-dasharray:none;stroke-opacity:1"
       transform="matrix(1.3333333,0,0,-1.3333333,0,227.092)" />
    <path
       id="path14"
       d="M 113.002,130.035 148.563,115.34"
       style="fill:none;stroke:#231f20;stroke-width:1;stroke-linecap:butt;stroke-linejoin:miter;stroke-miterlimit:10;stroke-dasharray:none;stroke-opacity:1"
       transform="matrix(1.3333333,0,0,-1.3333333,0,227.092)" />
    <path
       id="path15"
       d="m 119.753,140.604 24.084,-9.952"
       style="fill:none;stroke:#231f20;stroke-width:1;stroke-linecap:butt;stroke-linejoin:miter;stroke-miterlimit:10;stroke-dasharray:none;stroke-opacity:1"
       transform="matrix(1.3333333,0,0,-1.3333333,0,227.092)" />
  </g>
</svg>
